<svg width="26" height="27" viewBox="0 0 26 27" fill="none" xmlns="http://www.w3.org/2000/svg">
<rect x="0.420883" y="14.4949" width="22.1574" height="11.7121" rx="0.65" transform="rotate(-13.2456 0.420883 14.4949)" fill="white" stroke="black" stroke-width="0.7"/>
<path d="M9.21488 20.6678L7.84943 19.2355L7.20743 19.3885L7.60403 21.0519L7.07292 21.1785L6.10298 17.1106L7.41617 16.7975C7.72356 16.7242 7.99483 16.715 8.22999 16.77C8.46904 16.824 8.66243 16.928 8.81016 17.0819C8.95789 17.2358 9.05912 17.4276 9.11386 17.6572C9.18065 17.9373 9.15785 18.2039 9.04546 18.4568C8.93696 18.7089 8.72958 18.9084 8.42333 19.0554L9.85104 20.5161L9.21488 20.6678ZM7.10584 18.9625L7.88792 18.776C8.17585 18.7073 8.3751 18.5858 8.48566 18.4114C8.5953 18.2331 8.62183 18.0253 8.56523 17.788C8.50772 17.5467 8.3912 17.3771 8.2157 17.2792C8.04408 17.1803 7.81236 17.1656 7.52054 17.2352L6.73847 17.4217L7.10584 18.9625ZM10.2879 16.5692L10.6122 17.9291L12.0946 17.5756L12.199 18.0133L10.7165 18.3668L11.0505 19.7675L12.7081 19.3723L12.8124 19.8101L10.6238 20.3319L9.65245 16.2581L11.8411 15.7362L11.9455 16.174L10.2879 16.5692ZM16.8144 18.8558L16.2833 18.9825L13.3748 16.2526L14.1472 19.4918L13.6161 19.6184L12.6447 15.5446L13.1758 15.418L16.0829 18.142L15.312 14.9087L15.8431 14.782L16.8144 18.8558ZM19.2537 13.975L19.3566 14.4069L18.2477 14.6713L19.1147 18.3074L18.5836 18.434L17.7166 14.7979L16.6019 15.0637L16.4989 14.6318L19.2537 13.975Z" fill="black"/>
<line x1="1.97115" y1="14.0566" x2="11.7827" y2="3.02827" stroke="black" stroke-width="0.7" stroke-linecap="round"/>
<line x1="20.9033" y1="9.64129" x2="12.0866" y2="3.48539" stroke="black" stroke-width="0.7" stroke-linecap="square"/>
<circle cx="9.5" cy="1.5" r="1.15" fill="white" stroke="black" stroke-width="0.7"/>
<path d="M10.7514 2.26033L10.5039 2.01284L10.0089 2.50781L10.2564 2.7553L10.7514 2.26033ZM11.2564 3.7553C11.3931 3.89198 11.6147 3.89198 11.7514 3.7553C11.8881 3.61862 11.8881 3.39701 11.7514 3.26033L11.2564 3.7553ZM10.2564 2.7553L11.2564 3.7553L11.7514 3.26033L10.7514 2.26033L10.2564 2.7553Z" fill="black"/>
</svg>
