<svg width="14" height="14" viewBox="0 0 14 14" fill="none" xmlns="http://www.w3.org/2000/svg">
<circle cx="7" cy="7" r="6.75" stroke="black" stroke-width="0.5"/>
<path d="M6.819 11V6.23H7.683V11H6.819ZM7.251 5.312C7.083 5.312 6.942 5.258 6.828 5.15C6.72 5.042 6.666 4.91 6.666 4.754C6.666 4.592 6.72 4.457 6.828 4.349C6.942 4.241 7.083 4.187 7.251 4.187C7.419 4.187 7.557 4.241 7.665 4.349C7.779 4.451 7.836 4.58 7.836 4.736C7.836 4.898 7.782 5.036 7.674 5.15C7.566 5.258 7.425 5.312 7.251 5.312Z" fill="black"/>
</svg>
