<svg width="50" height="49" viewBox="0 0 50 49" fill="none" xmlns="http://www.w3.org/2000/svg">
<rect x="0.939453" width="48.1843" height="48.1843" rx="24.0921" fill="url(#paint0_linear_3317_9093)"/>
<path d="M21.0225 24.1544C21.0225 21.9349 22.8208 20.1352 25.0396 20.1352C27.2585 20.1352 29.0577 21.9349 29.0577 24.1544C29.0577 26.3739 27.2585 28.1737 25.0396 28.1737C22.8208 28.1737 21.0225 26.3739 21.0225 24.1544ZM18.8504 24.1544C18.8504 27.5737 21.6213 30.3454 25.0396 30.3454C28.4579 30.3454 31.2288 27.5737 31.2288 24.1544C31.2288 20.7351 28.4579 17.9634 25.0396 17.9634C21.6213 17.9634 18.8504 20.7351 18.8504 24.1544ZM30.0275 17.7179C30.0274 18.0041 30.1121 18.2839 30.2709 18.5219C30.4297 18.7598 30.6556 18.9454 30.9198 19.055C31.1841 19.1646 31.4749 19.1934 31.7555 19.1377C32.0361 19.0819 32.2939 18.9442 32.4962 18.742C32.6986 18.5397 32.8364 18.282 32.8924 18.0014C32.9483 17.7207 32.9198 17.4298 32.8104 17.1654C32.701 16.901 32.5157 16.6749 32.2779 16.5159C32.0401 16.3568 31.7605 16.2718 31.4744 16.2717H31.4739C31.0904 16.2719 30.7227 16.4243 30.4515 16.6955C30.1803 16.9666 30.0278 17.3344 30.0275 17.7179ZM20.1701 33.9684C18.9949 33.9148 18.3562 33.719 17.9317 33.5536C17.369 33.3345 16.9675 33.0735 16.5453 32.6518C16.1232 32.2301 15.8619 31.8288 15.6437 31.2659C15.4783 30.8415 15.2825 30.2024 15.2291 29.0269C15.1707 27.756 15.159 27.3743 15.159 24.1545C15.159 20.9348 15.1716 20.5541 15.2291 19.2821C15.2826 18.1067 15.4798 17.4688 15.6437 17.0432C15.8628 16.4802 16.1238 16.0786 16.5453 15.6563C16.9669 15.2341 17.368 14.9727 17.9317 14.7545C18.356 14.589 18.9949 14.3932 20.1701 14.3397C21.4406 14.2813 21.8223 14.2696 25.0396 14.2696C28.257 14.2696 28.639 14.2822 29.9106 14.3397C31.0858 14.3933 31.7234 14.5905 32.1489 14.7545C32.7117 14.9727 33.1132 15.2346 33.5354 15.6563C33.9575 16.078 34.2179 16.4802 34.437 17.0432C34.6024 17.4676 34.7982 18.1067 34.8516 19.2821C34.91 20.5541 34.9217 20.9348 34.9217 24.1545C34.9217 27.3743 34.91 27.755 34.8516 29.0269C34.7981 30.2024 34.6014 30.8413 34.437 31.2659C34.2179 31.8288 33.9569 32.2304 33.5354 32.6518C33.1138 33.0731 32.7117 33.3345 32.1489 33.5536C31.7247 33.7191 31.0858 33.9149 29.9106 33.9684C28.6401 34.0268 28.2584 34.0385 25.0396 34.0385C21.8208 34.0385 21.4402 34.0268 20.1701 33.9684ZM20.0703 12.1707C18.7871 12.2291 17.9103 12.4326 17.1446 12.7307C16.3516 13.0385 15.6803 13.4514 15.0094 14.1214C14.3386 14.7913 13.9269 15.4639 13.6192 16.2571C13.3212 17.0236 13.1178 17.9001 13.0593 19.1837C12.9999 20.4692 12.9863 20.8802 12.9863 24.1544C12.9863 27.4287 12.9999 27.8397 13.0593 29.1252C13.1178 30.4088 13.3212 31.2853 13.6192 32.0517C13.9269 32.8445 14.3387 33.5178 15.0094 34.1875C15.6802 34.8572 16.3516 35.2695 17.1446 35.5782C17.9118 35.8762 18.7871 36.0797 20.0703 36.1382C21.3561 36.1966 21.7663 36.2112 25.0396 36.2112C28.3129 36.2112 28.7238 36.1976 30.009 36.1382C31.2922 36.0797 32.1684 35.8762 32.9346 35.5782C33.7272 35.2695 34.399 34.8575 35.0698 34.1875C35.7406 33.5175 36.1515 32.8445 36.4601 32.0517C36.758 31.2853 36.9625 30.4087 37.0199 29.1252C37.0784 27.8387 37.092 27.4287 37.092 24.1544C37.092 20.8802 37.0784 20.4692 37.0199 19.1837C36.9615 17.9001 36.758 17.0231 36.4601 16.2571C36.1515 15.4644 35.7396 14.7924 35.0698 14.1214C34.4 13.4503 33.7272 13.0385 32.9356 12.7307C32.1684 12.4326 31.2921 12.2282 30.0099 12.1707C28.7248 12.1122 28.3139 12.0977 25.0406 12.0977C21.7673 12.0977 21.3561 12.1113 20.0703 12.1707Z" fill="white"/>
<defs>
<linearGradient id="paint0_linear_3317_9093" x1="48.1976" y1="48.1843" x2="0.0133528" y2="-1.29699e-06" gradientUnits="userSpaceOnUse">
<stop stop-color="#FBE18A"/>
<stop offset="0.21" stop-color="#FCBB45"/>
<stop offset="0.38" stop-color="#F75274"/>
<stop offset="0.52" stop-color="#D53692"/>
<stop offset="0.74" stop-color="#8F39CE"/>
<stop offset="1" stop-color="#5B4FE9"/>
</linearGradient>
</defs>
</svg>
