<svg width="26" height="27" viewBox="0 0 26 27" fill="none" xmlns="http://www.w3.org/2000/svg">
<rect x="0.420883" y="14.4949" width="22.1574" height="11.7121" rx="0.65" transform="rotate(-13.2456 0.420883 14.4949)" fill="white" stroke="black" stroke-width="0.7"/>
<path d="M7.50106 20.62L8.92514 20.2805L9.02811 20.7124L7.07292 21.1785L6.10298 17.1106L6.6341 16.9839L7.50106 20.62ZM9.2563 16.8152L9.58054 18.175L11.063 17.8216L11.1674 18.2593L9.68491 18.6128L10.0189 20.0135L11.6764 19.6183L11.7808 20.056L9.59215 20.5779L8.62082 16.5041L10.8095 15.9822L10.9138 16.42L9.2563 16.8152ZM15.7828 19.1018L15.2517 19.2285L12.3432 16.4986L13.1155 19.7378L12.5844 19.8644L11.6131 15.7906L12.1442 15.664L15.0513 18.388L14.2803 15.1547L14.8115 15.028L15.7828 19.1018ZM16.9847 14.516C17.4283 14.4102 17.8315 14.4025 18.1943 14.4928C18.5601 14.5783 18.8653 14.7543 19.1098 15.0209C19.3581 15.2865 19.532 15.6275 19.6312 16.0439C19.7305 16.4602 19.7292 16.8429 19.6274 17.192C19.5286 17.5364 19.3352 17.8292 19.0474 18.0705C18.7625 18.3071 18.3982 18.4782 17.9546 18.584L16.6882 18.8859L15.7182 14.818L16.9847 14.516ZM17.8503 18.1462C18.3756 18.021 18.7434 17.7873 18.9538 17.4452C19.1632 17.0992 19.2081 16.6752 19.0884 16.1733C18.9678 15.6675 18.7336 15.3059 18.3857 15.0887C18.0418 14.8705 17.6091 14.8236 17.0877 14.9479L16.3523 15.1232L17.1149 18.3216L17.8503 18.1462Z" fill="black"/>
<line x1="1.97115" y1="14.0566" x2="11.7827" y2="3.02827" stroke="black" stroke-width="0.7" stroke-linecap="round"/>
<line x1="20.9033" y1="9.64129" x2="12.0866" y2="3.48539" stroke="black" stroke-width="0.7" stroke-linecap="square"/>
<circle cx="9.5" cy="1.5" r="1.15" fill="white" stroke="black" stroke-width="0.7"/>
<path d="M10.7514 2.26033L10.5039 2.01284L10.0089 2.50781L10.2564 2.7553L10.7514 2.26033ZM11.2564 3.7553C11.3931 3.89198 11.6147 3.89198 11.7514 3.7553C11.8881 3.61862 11.8881 3.39701 11.7514 3.26033L11.2564 3.7553ZM10.2564 2.7553L11.2564 3.7553L11.7514 3.26033L10.7514 2.26033L10.2564 2.7553Z" fill="black"/>
</svg>
