<svg width="50" height="49" viewBox="0 0 50 49" fill="none" xmlns="http://www.w3.org/2000/svg">
<rect x="0.876953" width="48.1843" height="48.1843" rx="24.0921" fill="#006699"/>
<path d="M19.4269 33.8568V20.8408H15.1044V33.8568H19.4273H19.4269ZM17.2665 19.064C18.7735 19.064 19.7118 18.0646 19.7118 16.8155C19.6836 15.538 18.7735 14.5664 17.2952 14.5664C15.8158 14.5664 14.8496 15.538 14.8496 16.8154C14.8496 18.0644 15.7875 19.0639 17.2382 19.0639H17.2662L17.2665 19.064ZM21.8194 33.8568H26.1415V26.5889C26.1415 26.2004 26.1697 25.8109 26.2839 25.5334C26.5962 24.7558 27.3074 23.9509 28.5018 23.9509C30.0655 23.9509 30.6913 25.1444 30.6913 26.8944V33.8568H35.0134V26.3938C35.0134 22.3961 32.8812 20.5357 30.0375 20.5357C27.706 20.5357 26.682 21.84 26.1131 22.7283H26.1419V20.8413H21.8196C21.876 22.0623 21.8193 33.8572 21.8193 33.8572L21.8194 33.8568Z" fill="white"/>
</svg>
