<svg width="80" height="46" viewBox="0 0 80 46" fill="none" xmlns="http://www.w3.org/2000/svg">
<rect width="80" height="46" rx="8" fill="white"/>
<path d="M38.8539 22.0891V26.9417H37.3037V14.9578H41.4151C41.9058 14.9477 42.3938 15.0341 42.8507 15.2122C43.3076 15.3902 43.7245 15.6564 44.0774 15.9953C44.4337 16.3136 44.7174 16.704 44.9092 17.1403C45.101 17.5765 45.1966 18.0485 45.1895 18.5244C45.1997 19.0029 45.1056 19.478 44.9136 19.917C44.7217 20.356 44.4364 20.7486 44.0774 21.0679C43.3584 21.7487 42.471 22.0888 41.4151 22.0881H38.8539V22.0891ZM38.8539 16.4332V20.6165H41.4536C41.7386 20.6249 42.0222 20.5742 42.2863 20.4675C42.5505 20.3608 42.7892 20.2005 42.9874 19.9969C43.1846 19.8066 43.3413 19.5789 43.4483 19.3274C43.5553 19.0759 43.6104 18.8056 43.6104 18.5325C43.6104 18.2595 43.5553 17.9892 43.4483 17.7377C43.3413 17.4861 43.1846 17.2585 42.9874 17.0681C42.7917 16.8603 42.5538 16.6961 42.2893 16.5865C42.0249 16.4768 41.74 16.4243 41.4536 16.4323H38.8539V16.4332Z" fill="#5F6368"/>
<path d="M48.7616 18.4727C49.9074 18.4727 50.8118 18.7767 51.4749 19.3849C52.138 19.993 52.4692 20.8268 52.4685 21.8862V26.9397H50.9858V25.8018H50.9184C50.2765 26.7389 49.4227 27.2074 48.3572 27.2074C47.4476 27.2074 46.6866 26.9397 46.0743 26.4042C45.7804 26.1585 45.5454 25.8507 45.3865 25.5033C45.2276 25.1559 45.1487 24.7777 45.1557 24.3962C45.1557 23.5478 45.4786 22.873 46.1243 22.372C46.7701 21.8709 47.6321 21.6198 48.7105 21.6185C49.631 21.6185 50.3891 21.7858 50.9848 22.1205V21.7686C50.9865 21.5086 50.93 21.2514 50.8193 21.0157C50.7085 20.78 50.5463 20.5718 50.3445 20.4061C49.9346 20.0388 49.4003 19.8384 48.8482 19.8448C47.9823 19.8448 47.2971 20.2075 46.7925 20.9329L45.4272 20.079C46.1782 19.0081 47.2897 18.4727 48.7616 18.4727ZM46.756 24.4297C46.7549 24.6256 46.801 24.819 46.8905 24.9936C46.9799 25.1682 47.1101 25.3191 47.2701 25.4337C47.613 25.7015 48.0385 25.8434 48.4746 25.8353C49.1288 25.8342 49.7558 25.5756 50.2184 25.1162C50.7319 24.6362 50.9886 24.073 50.9886 23.4267C50.5053 23.0442 49.8313 22.8529 48.9667 22.8529C48.337 22.8529 47.8119 23.0037 47.3914 23.3052C46.9668 23.6112 46.756 23.9832 46.756 24.4297Z" fill="#5F6368"/>
<path d="M60.98 18.7422L55.8037 30.5559H54.2035L56.1244 26.4223L52.7207 18.7422H54.4057L56.8658 24.6323H56.8995L59.2922 18.7422H60.98Z" fill="#5F6368"/>
<path d="M32.5898 21.0405C32.5903 20.5713 32.5504 20.103 32.4704 19.6406H25.9326V22.2921H29.6771C29.6005 22.7156 29.4383 23.1193 29.2004 23.4789C28.9624 23.8384 28.6536 24.1464 28.2926 24.3843V26.1054H30.5273C31.8358 24.9073 32.5898 23.1355 32.5898 21.0405Z" fill="#4285F4"/>
<path d="M25.9323 27.77C27.8031 27.77 29.3783 27.16 30.527 26.1082L28.2922 24.3871C27.6702 24.8059 26.8691 25.0449 25.9323 25.0449C24.1241 25.0449 22.5893 23.8344 22.0405 22.2031H19.7383V23.9769C20.3153 25.1171 21.2001 26.0756 22.2938 26.7454C23.3876 27.4152 24.6473 27.77 25.9323 27.77Z" fill="#34A853"/>
<path d="M22.0404 22.2019C21.7502 21.3472 21.7502 20.4215 22.0404 19.5667V17.793H19.7382C19.2528 18.7522 19 19.8108 19 20.8843C19 21.9578 19.2528 23.0165 19.7382 23.9757L22.0404 22.2019Z" fill="#FBBC04"/>
<path d="M25.9323 16.7256C26.9209 16.7095 27.8762 17.0805 28.5917 17.7583L30.5703 15.7933C29.3157 14.623 27.6535 13.9805 25.9323 14.0005C24.6473 14.0005 23.3876 14.3552 22.2938 15.0251C21.2001 15.6949 20.3153 16.6534 19.7383 17.7936L22.0405 19.5674C22.5893 17.9361 24.1241 16.7256 25.9323 16.7256Z" fill="#EA4335"/>
</svg>
