<svg width="49" height="49" viewBox="0 0 49 49" fill="none" xmlns="http://www.w3.org/2000/svg">
<rect x="0.816406" width="48.1843" height="48.1843" rx="24.0921" fill="black"/>
<path fill-rule="evenodd" clip-rule="evenodd" d="M30.1118 20.8168C31.7256 21.9651 33.6582 22.5786 35.6382 22.5712V18.6436C35.249 18.6447 34.8608 18.6029 34.4806 18.5192V21.6482C32.4962 21.6517 30.5607 21.0312 28.9477 19.8742V27.952C28.9428 29.2774 28.5796 30.5769 27.8966 31.7125C27.2137 32.8482 26.2364 33.7777 25.0684 34.4024C23.9005 35.0272 22.5853 35.324 21.2625 35.2613C19.9397 35.1986 18.6584 34.7787 17.5547 34.0463C18.5756 35.0802 19.8802 35.7876 21.3031 36.0789C22.726 36.3703 24.2032 36.2325 25.5478 35.6829C26.8924 35.1334 28.0438 34.1969 28.8563 32.992C29.6688 31.787 30.1057 30.3679 30.1118 28.9142V20.8168ZM31.5441 16.8107C30.7234 15.9204 30.2199 14.7835 30.1118 13.577V13.0664H29.0131C29.1489 13.8333 29.4444 14.563 29.8805 15.2081C30.3166 15.8532 30.8834 16.3992 31.5441 16.8107ZM20.0988 30.9369C19.718 30.4385 19.4846 29.8431 19.4252 29.2184C19.3659 28.5938 19.4829 27.965 19.763 27.4036C20.0431 26.8422 20.475 26.3709 21.0096 26.0431C21.5441 25.7153 22.1599 25.5443 22.7868 25.5496C23.1329 25.5495 23.477 25.6025 23.8071 25.7067V21.6482C23.4212 21.597 23.0321 21.5752 22.6429 21.5827V24.7379C21.8392 24.4836 20.9693 24.5414 20.2063 24.8999C19.4432 25.2583 18.8429 25.891 18.5248 26.6723C18.2066 27.4535 18.1939 28.326 18.4892 29.1162C18.7845 29.9064 19.3661 30.5564 20.1184 30.9369H20.0988Z" fill="#EE1D52"/>
<path fill-rule="evenodd" clip-rule="evenodd" d="M28.9467 19.848C30.5598 21.005 32.4952 21.6255 34.4797 21.622V18.493C33.349 18.2537 32.3219 17.6653 31.5432 16.8107C30.8824 16.3992 30.3156 15.8532 29.8796 15.2081C29.4435 14.563 29.1479 13.8333 29.0121 13.0664H26.1214V28.9142C26.1187 29.6157 25.8966 30.2987 25.4862 30.8674C25.0759 31.4361 24.4979 31.8619 23.8335 32.085C23.169 32.3081 22.4514 32.3174 21.7814 32.1115C21.1115 31.9056 20.5227 31.4948 20.0979 30.9369C19.4246 30.5969 18.8854 30.0398 18.5673 29.3554C18.2492 28.671 18.1707 27.8993 18.3445 27.1648C18.5183 26.4304 18.9343 25.7759 19.5253 25.3071C20.1164 24.8382 20.848 24.5824 21.6021 24.5808C21.9481 24.5819 22.292 24.6348 22.6224 24.7379V21.5827C21.1951 21.617 19.8088 22.0677 18.6337 22.8794C17.4587 23.6912 16.546 24.8286 16.0078 26.1522C15.4695 27.4758 15.3291 28.9278 15.6037 30.3301C15.8783 31.7325 16.5561 33.024 17.5538 34.0463C18.6577 34.784 19.941 35.2082 21.2668 35.2736C22.5926 35.3391 23.9113 35.0433 25.0825 34.4179C26.2536 33.7925 27.2334 32.8609 27.9173 31.7222C28.6013 30.5836 28.9638 29.2806 28.9663 27.952L28.9467 19.848Z" fill="white"/>
<path fill-rule="evenodd" clip-rule="evenodd" d="M34.4804 18.4931V17.6486C33.4421 17.6531 32.4238 17.3625 31.5439 16.8108C32.3207 17.6678 33.3486 18.2568 34.4804 18.4931ZM29.0129 13.0665C29.0129 12.9159 28.9671 12.7588 28.9474 12.6082V12.0977H24.958V27.952C24.9545 28.8398 24.5993 29.6899 23.9703 30.3158C23.3412 30.9417 22.4898 31.2922 21.6028 31.2905C21.0806 31.2931 20.5651 31.172 20.0986 30.937C20.5235 31.4949 21.1122 31.9056 21.7822 32.1115C22.4522 32.3174 23.1698 32.3082 23.8342 32.0851C24.4987 31.8619 25.0766 31.4361 25.487 30.8675C25.8973 30.2988 26.1194 29.6157 26.1221 28.9143V13.0665H29.0129ZM22.6231 21.5762V20.6794C20.9815 20.4562 19.3127 20.7961 17.8887 21.6437C16.4648 22.4913 15.3696 23.7966 14.7818 25.3469C14.1939 26.8972 14.148 28.6011 14.6515 30.1809C15.155 31.7606 16.1783 33.1231 17.5545 34.0463C16.5644 33.0217 15.8938 31.7307 15.6248 30.3309C15.3558 28.9311 15.4999 27.4832 16.0396 26.1641C16.5793 24.845 17.4911 23.7117 18.6637 22.9028C19.8364 22.0939 21.219 21.6443 22.6427 21.609L22.6231 21.5762Z" fill="#69C9D0"/>
</svg>
