<svg width="80" height="46" viewBox="0 0 80 46" fill="none" xmlns="http://www.w3.org/2000/svg">
<rect width="80" height="46" rx="8" fill="white"/>
<path d="M57.7202 17.1758H55.1779C54.4093 17.1758 53.8181 17.4123 53.4633 18.1809L48.6152 29.2369H52.0444C52.0444 29.2369 52.6356 27.7588 52.7538 27.4041C53.1086 27.4041 56.4786 27.4041 56.9516 27.4041C57.0698 27.8179 57.3654 29.1778 57.3654 29.1778H60.4398L57.7202 17.1758ZM53.6998 24.9209C53.9954 24.2114 55.0005 21.5509 55.0005 21.5509C55.0005 21.61 55.2961 20.8414 55.4144 20.4275L55.6509 21.4918C55.6509 21.4918 56.3012 24.3888 56.4195 24.98H53.6998V24.9209Z" fill="#3362AB"/>
<path d="M48.8517 25.2772C48.8517 27.7604 46.6051 29.4158 43.1168 29.4158C41.6387 29.4158 40.2198 29.1202 39.4512 28.7655L39.9242 26.0458L40.338 26.2232C41.4022 26.6962 42.1117 26.8736 43.4124 26.8736C44.3584 26.8736 45.3635 26.5188 45.3635 25.6911C45.3635 25.159 44.9496 24.8042 43.6489 24.213C42.4073 23.6218 40.7519 22.6758 40.7519 20.9612C40.7519 18.5963 43.0577 17 46.3094 17C47.551 17 48.6152 17.2365 49.2656 17.5321L48.7926 20.1335L48.5561 19.897C47.9649 19.6605 47.1963 19.424 46.073 19.424C44.8314 19.4832 44.2401 20.0153 44.2401 20.4883C44.2401 21.0204 44.9496 21.4342 46.073 21.9663C47.9649 22.8532 48.8517 23.8583 48.8517 25.2772Z" fill="#3362AB"/>
<path d="M20 17.2951L20.0591 17.0586H25.1437C25.8532 17.0586 26.3853 17.2951 26.5627 18.0637L27.686 23.3848C26.5627 20.5469 23.9612 18.2411 20 17.2951Z" fill="#F9B50B"/>
<path d="M34.8401 17.1763L29.6964 29.1783H26.2081L23.252 19.1274C25.3804 20.4872 27.1541 22.6156 27.8044 24.0937L28.1592 25.3353L31.3518 17.1172H34.8401V17.1763Z" fill="#3362AB"/>
<path d="M36.2002 17.1172H39.4519L37.3826 29.1783H34.1309L36.2002 17.1172Z" fill="#3362AB"/>
</svg>
